<?xml version="1.0" encoding="utf-8"?>
<!DOCTYPE svg PUBLIC "-//W3C//DTD SVG 1.1//EN" "http://www.w3.org/Graphics/SVG/1.1/DTD/svg11.dtd">
<svg version="1.1" width="512.0" height="512.0" viewBox="0.0000 0.0000 64.0000 64.0000" xmlns="http://www.w3.org/2000/svg" xmlns:xlink="http://www.w3.org/1999/xlink"><desc>Generated by jp.ac.soka.unemi.TUDraw 1.0a4</desc><defs><linearGradient id="G0" x1="0.498" y1="0.001" x2="0.498" y2="0.999"><stop stop-color="#BFC9D3" offset="0.000"></stop><stop stop-color="#8698AB" offset="0.128"></stop><stop stop-color="#6C8198" offset="0.212"></stop><stop stop-color="#4B647F" offset="1.000"></stop></linearGradient></defs><g><path d="M12.000,64.000C5.373,64.000 0.000,58.627 0.000,52.000L0.000,12.000C0.000,5.373 5.373,0.000 12.000,0.000L52.000,0.000C58.627,0.000 64.000,5.373 64.000,12.000L64.000,52.000C64.000,58.627 58.627,64.000 52.000,64.000Z" fill="#4B647F" stroke="none"></path><path d="M14.000,60.800C8.035,60.800 3.200,55.965 3.200,50.000L3.200,14.000C3.200,8.035 8.035,3.200 14.000,3.200L50.000,3.200C55.965,3.200 60.800,8.035 60.800,14.000L60.800,50.000C60.800,55.965 55.965,60.800 50.000,60.800Z" fill="url(#G0)" stroke="none"></path><path d="M17.889,20.419L20.419,17.889L20.695,10.849L25.038,9.050L30.211,13.833L33.789,13.833L38.962,9.050L43.305,10.849L43.581,17.889L46.111,20.419L53.151,20.695L54.950,25.038L50.167,30.211L50.167,33.789L54.950,38.962L53.151,43.305L46.111,43.581L43.522,46.141L43.246,53.180L38.962,54.950L33.789,50.167L30.211,50.167L25.038,54.950L20.695,53.151L20.419,46.111L17.889,43.581L10.849,43.364L9.050,38.962L13.833,33.789L13.833,30.211L9.050,25.038L10.849,20.695ZM39.526,24.549C35.369,20.434 28.631,20.434 24.474,24.549C20.318,28.664 20.318,35.336 24.474,39.451C28.631,43.566 35.369,43.566 39.526,39.451C43.682,35.336 43.682,28.664 39.526,24.549" fill="#FFFEFE" stroke="none"></path></g></svg>