<?xml version="1.0" encoding="utf-8"?>
<!DOCTYPE svg PUBLIC "-//W3C//DTD SVG 1.1//EN" "http://www.w3.org/Graphics/SVG/1.1/DTD/svg11.dtd">
<svg version="1.1" width="256.0" height="256.0" viewBox="0.0000 0.0000 64.0000 64.0000" xmlns="http://www.w3.org/2000/svg" xmlns:xlink="http://www.w3.org/1999/xlink"><desc>Generated by jp.ac.soka.unemi.TUDraw 1.0a4</desc><defs><linearGradient id="G0" x1="0.498" y1="0.001" x2="0.498" y2="0.999"><stop stop-color="#BFC9D3" offset="0.000"></stop><stop stop-color="#8698AB" offset="0.128"></stop><stop stop-color="#6C8198" offset="0.212"></stop><stop stop-color="#4B647F" offset="1.000"></stop></linearGradient></defs><g><path d="M12.000,64.000C5.373,64.000 0.000,58.627 0.000,52.000L0.000,12.000C0.000,5.373 5.373,0.000 12.000,0.000L52.000,0.000C58.627,0.000 64.000,5.373 64.000,12.000L64.000,52.000C64.000,58.627 58.627,64.000 52.000,64.000Z" fill="#4B647F" stroke="none"></path><path d="M14.000,60.800C8.035,60.800 3.200,55.965 3.200,50.000L3.200,14.000C3.200,8.035 8.035,3.200 14.000,3.200L50.000,3.200C55.965,3.200 60.800,8.035 60.800,14.000L60.800,50.000C60.800,55.965 55.965,60.800 50.000,60.800Z" fill="url(#G0)" stroke="none"></path><path d="M18.393,13.250L51.514,31.797L18.318,50.118Z" fill="#FFFFFF" stroke="none" stroke-width="1.000"></path></g></svg>